<mxfile host="app.diagrams.net" modified="2020-08-27T08:23:08.645Z" agent="5.0 (Windows)" etag="mgcNvyOQif3KmlXtYTWi" version="13.6.5" type="github">
  <diagram id="C5RBs43oDa-KdzZeNtuy" name="Page-1">
    <mxGraphModel dx="1038" dy="547" grid="1" gridSize="10" guides="1" tooltips="1" connect="1" arrows="1" fold="1" page="1" pageScale="1" pageWidth="1169" pageHeight="827" math="0" shadow="0">
      <root>
        <mxCell id="WIyWlLk6GJQsqaUBKTNV-0" />
        <mxCell id="WIyWlLk6GJQsqaUBKTNV-1" parent="WIyWlLk6GJQsqaUBKTNV-0" />
        <mxCell id="ua-13YmFw9fToSGfInuM-19" value="" style="edgeStyle=orthogonalEdgeStyle;rounded=0;orthogonalLoop=1;jettySize=auto;html=1;exitX=0.5;exitY=1;exitDx=0;exitDy=0;" edge="1" parent="WIyWlLk6GJQsqaUBKTNV-1" source="ua-13YmFw9fToSGfInuM-5">
          <mxGeometry relative="1" as="geometry">
            <mxPoint x="260" y="100" as="sourcePoint" />
            <mxPoint x="170" y="127" as="targetPoint" />
          </mxGeometry>
        </mxCell>
        <mxCell id="ua-13YmFw9fToSGfInuM-0" value="HR - Leave Application and Processsing" style="swimlane;html=1;childLayout=stackLayout;resizeParent=1;resizeParentMax=0;horizontal=1;startSize=20;horizontalStack=0;" vertex="1" parent="WIyWlLk6GJQsqaUBKTNV-1">
          <mxGeometry x="50" y="20" width="780" height="570" as="geometry" />
        </mxCell>
        <mxCell id="ua-13YmFw9fToSGfInuM-1" value="Staff" style="swimlane;html=1;startSize=20;horizontal=0;" vertex="1" parent="ua-13YmFw9fToSGfInuM-0">
          <mxGeometry y="20" width="780" height="180" as="geometry" />
        </mxCell>
        <mxCell id="ua-13YmFw9fToSGfInuM-5" value="Start" style="rounded=1;whiteSpace=wrap;html=1;" vertex="1" parent="ua-13YmFw9fToSGfInuM-1">
          <mxGeometry x="80" y="16" width="80" height="34" as="geometry" />
        </mxCell>
        <mxCell id="ua-13YmFw9fToSGfInuM-13" value="Continuity notes" style="shape=document;whiteSpace=wrap;html=1;boundedLbl=1;rounded=0;" vertex="1" parent="ua-13YmFw9fToSGfInuM-1">
          <mxGeometry x="260" y="53" width="120" height="80" as="geometry" />
        </mxCell>
        <mxCell id="ua-13YmFw9fToSGfInuM-8" value="Submit Leave application form" style="rounded=0;whiteSpace=wrap;html=1;" vertex="1" parent="ua-13YmFw9fToSGfInuM-1">
          <mxGeometry x="60" y="71" width="120" height="44" as="geometry" />
        </mxCell>
        <mxCell id="ua-13YmFw9fToSGfInuM-15" value="" style="endArrow=classic;html=1;exitX=0;exitY=0.5;exitDx=0;exitDy=0;entryX=1;entryY=0.5;entryDx=0;entryDy=0;" edge="1" parent="ua-13YmFw9fToSGfInuM-1" source="ua-13YmFw9fToSGfInuM-13" target="ua-13YmFw9fToSGfInuM-8">
          <mxGeometry width="50" height="50" relative="1" as="geometry">
            <mxPoint x="450" y="226" as="sourcePoint" />
            <mxPoint x="500" y="176" as="targetPoint" />
          </mxGeometry>
        </mxCell>
        <mxCell id="ua-13YmFw9fToSGfInuM-2" value="HOD" style="swimlane;html=1;startSize=20;horizontal=0;" vertex="1" parent="ua-13YmFw9fToSGfInuM-0">
          <mxGeometry y="200" width="780" height="130" as="geometry" />
        </mxCell>
        <mxCell id="ua-13YmFw9fToSGfInuM-11" value="Approved?" style="rhombus;whiteSpace=wrap;html=1;" vertex="1" parent="ua-13YmFw9fToSGfInuM-2">
          <mxGeometry x="80" y="40" width="80" height="60" as="geometry" />
        </mxCell>
        <mxCell id="ua-13YmFw9fToSGfInuM-33" value="yes" style="text;html=1;strokeColor=none;fillColor=none;align=center;verticalAlign=middle;whiteSpace=wrap;rounded=0;" vertex="1" parent="ua-13YmFw9fToSGfInuM-2">
          <mxGeometry x="122" y="110" width="40" height="20" as="geometry" />
        </mxCell>
        <mxCell id="ua-13YmFw9fToSGfInuM-3" value="HRM" style="swimlane;html=1;startSize=20;horizontal=0;" vertex="1" parent="ua-13YmFw9fToSGfInuM-0">
          <mxGeometry y="330" width="780" height="120" as="geometry" />
        </mxCell>
        <mxCell id="ua-13YmFw9fToSGfInuM-16" value="Confirmation by HR/CEO" style="whiteSpace=wrap;html=1;" vertex="1" parent="ua-13YmFw9fToSGfInuM-3">
          <mxGeometry x="60" y="37" width="120" height="60" as="geometry" />
        </mxCell>
        <mxCell id="ua-13YmFw9fToSGfInuM-34" value="End" style="rounded=1;whiteSpace=wrap;html=1;" vertex="1" parent="ua-13YmFw9fToSGfInuM-3">
          <mxGeometry x="485" y="42" width="100" height="51" as="geometry" />
        </mxCell>
        <mxCell id="ua-13YmFw9fToSGfInuM-4" value="Finance" style="swimlane;html=1;startSize=20;horizontal=0;" vertex="1" parent="ua-13YmFw9fToSGfInuM-0">
          <mxGeometry y="450" width="780" height="120" as="geometry" />
        </mxCell>
        <mxCell id="ua-13YmFw9fToSGfInuM-23" value="" style="edgeStyle=orthogonalEdgeStyle;rounded=0;orthogonalLoop=1;jettySize=auto;html=1;exitX=0.5;exitY=1;exitDx=0;exitDy=0;" edge="1" parent="ua-13YmFw9fToSGfInuM-4">
          <mxGeometry relative="1" as="geometry">
            <mxPoint x="330" y="-24" as="sourcePoint" />
            <mxPoint x="130" y="24" as="targetPoint" />
            <Array as="points">
              <mxPoint x="330" y="-10" />
              <mxPoint x="130" y="-10" />
            </Array>
          </mxGeometry>
        </mxCell>
        <mxCell id="ua-13YmFw9fToSGfInuM-22" value="Processing of leave related dues" style="whiteSpace=wrap;html=1;" vertex="1" parent="ua-13YmFw9fToSGfInuM-4">
          <mxGeometry x="60" y="24" width="120" height="60" as="geometry" />
        </mxCell>
        <mxCell id="ua-13YmFw9fToSGfInuM-10" value="" style="edgeStyle=orthogonalEdgeStyle;rounded=0;orthogonalLoop=1;jettySize=auto;html=1;entryX=0.5;entryY=0;entryDx=0;entryDy=0;" edge="1" parent="ua-13YmFw9fToSGfInuM-0" source="ua-13YmFw9fToSGfInuM-8" target="ua-13YmFw9fToSGfInuM-11">
          <mxGeometry relative="1" as="geometry">
            <mxPoint x="120" y="184" as="targetPoint" />
          </mxGeometry>
        </mxCell>
        <mxCell id="ua-13YmFw9fToSGfInuM-17" value="" style="edgeStyle=orthogonalEdgeStyle;rounded=0;orthogonalLoop=1;jettySize=auto;html=1;" edge="1" parent="ua-13YmFw9fToSGfInuM-0" source="ua-13YmFw9fToSGfInuM-11" target="ua-13YmFw9fToSGfInuM-16">
          <mxGeometry relative="1" as="geometry" />
        </mxCell>
        <mxCell id="ua-13YmFw9fToSGfInuM-35" value="" style="edgeStyle=orthogonalEdgeStyle;rounded=0;orthogonalLoop=1;jettySize=auto;html=1;entryX=0;entryY=0.5;entryDx=0;entryDy=0;exitX=1;exitY=0.5;exitDx=0;exitDy=0;" edge="1" parent="ua-13YmFw9fToSGfInuM-0" source="ua-13YmFw9fToSGfInuM-22" target="ua-13YmFw9fToSGfInuM-34">
          <mxGeometry relative="1" as="geometry">
            <mxPoint x="430" y="390" as="sourcePoint" />
            <mxPoint x="510" y="390" as="targetPoint" />
            <Array as="points">
              <mxPoint x="440" y="504" />
              <mxPoint x="440" y="398" />
            </Array>
          </mxGeometry>
        </mxCell>
        <mxCell id="ua-13YmFw9fToSGfInuM-24" value="Notify staff" style="shape=process;whiteSpace=wrap;html=1;backgroundOutline=1;" vertex="1" parent="WIyWlLk6GJQsqaUBKTNV-1">
          <mxGeometry x="310" y="389" width="120" height="57" as="geometry" />
        </mxCell>
        <mxCell id="ua-13YmFw9fToSGfInuM-25" value="" style="edgeStyle=orthogonalEdgeStyle;rounded=0;orthogonalLoop=1;jettySize=auto;html=1;" edge="1" parent="WIyWlLk6GJQsqaUBKTNV-1" source="ua-13YmFw9fToSGfInuM-16" target="ua-13YmFw9fToSGfInuM-24">
          <mxGeometry relative="1" as="geometry" />
        </mxCell>
        <mxCell id="ua-13YmFw9fToSGfInuM-26" value="Notify staff" style="shape=process;whiteSpace=wrap;html=1;backgroundOutline=1;" vertex="1" parent="WIyWlLk6GJQsqaUBKTNV-1">
          <mxGeometry x="308" y="260" width="120" height="60" as="geometry" />
        </mxCell>
        <mxCell id="ua-13YmFw9fToSGfInuM-27" value="" style="edgeStyle=orthogonalEdgeStyle;rounded=0;orthogonalLoop=1;jettySize=auto;html=1;" edge="1" parent="WIyWlLk6GJQsqaUBKTNV-1" source="ua-13YmFw9fToSGfInuM-11" target="ua-13YmFw9fToSGfInuM-26">
          <mxGeometry relative="1" as="geometry" />
        </mxCell>
        <mxCell id="ua-13YmFw9fToSGfInuM-30" value="no" style="edgeLabel;html=1;align=center;verticalAlign=middle;resizable=0;points=[];" vertex="1" connectable="0" parent="ua-13YmFw9fToSGfInuM-27">
          <mxGeometry x="-0.0333" y="9" relative="1" as="geometry">
            <mxPoint as="offset" />
          </mxGeometry>
        </mxCell>
        <mxCell id="ua-13YmFw9fToSGfInuM-36" value="" style="endArrow=classic;html=1;exitX=1;exitY=0.5;exitDx=0;exitDy=0;entryX=0.5;entryY=0;entryDx=0;entryDy=0;" edge="1" parent="WIyWlLk6GJQsqaUBKTNV-1" source="ua-13YmFw9fToSGfInuM-26" target="ua-13YmFw9fToSGfInuM-34">
          <mxGeometry width="50" height="50" relative="1" as="geometry">
            <mxPoint x="500" y="380" as="sourcePoint" />
            <mxPoint x="550" y="330" as="targetPoint" />
            <Array as="points">
              <mxPoint x="585" y="290" />
            </Array>
          </mxGeometry>
        </mxCell>
      </root>
    </mxGraphModel>
  </diagram>
</mxfile>
